<svg xmlns="http://www.w3.org/2000/svg" width="120" height="63.443" viewBox="0 0 120 63.443"><g transform="translate(-135.976 -131.729)"><path d="M563.394,181.441l-1.422-.211-1.463,9.9h-5.4v5.223h6.06v-.3l.067.01Z" transform="translate(-316.642 -37.397)" fill="#737373"></path><path d="M577.975,158.429a4.728,4.728,0,1,1-4.013-5.161A4.625,4.625,0,0,1,577.975,158.429Z" transform="translate(-326.823 -16.232)" fill="#e50019"></path><rect width="104.093" height="23.733" transform="translate(135.976 171.439)"></rect><path d="M171.491,180.067c-9.674-.292-19.484-.8-29.161-1.5l-1.541-.112L140.261,177c-5.341-14.671-5.341-27.189,0-41.859l.528-1.451,1.54-.112c9.652-.7,19.463-1.21,29.162-1.5l2.782-.084-.343,2.762a171.011,171.011,0,0,0,0,42.634l.343,2.762Z" transform="translate(-0.211 -0.199)" fill="#fff"></path><path d="M178.979,185.308q-14.554-.438-29.06-1.5c-5.13-14.091-5.13-26.138,0-40.227q14.522-1.06,29.06-1.5A173.076,173.076,0,0,0,178.979,185.308Z" transform="translate(-7.627 -7.825)" fill="#e50019"></path><path d="M289.492,180.015c-3.849,0-7.747-.033-11.585-.1l-2.1-.036-.227-2.092a200.735,200.735,0,0,1,0-43.831l.227-2.092,2.1-.037c3.86-.066,7.775-.1,11.637-.1,5.8,0,11.7.076,17.526.227l2.093.054.218,2.081a205.674,205.674,0,0,1,0,43.564l-.218,2.083-2.094.053C301.216,179.94,295.3,180.015,289.492,180.015Z" transform="translate(-104.558)" fill="#fff"></path><path d="M314.381,184.777q-14.536.369-29.06.125a198.514,198.514,0,0,1,0-43.316q14.539-.251,29.06.126A203.606,203.606,0,0,1,314.381,184.777Z" transform="translate(-111.931 -7.372)" fill="#0060af"></path><path d="M405.431,177.621a174.561,174.561,0,0,0,0-42.362l-.334-2.779,2.8.11c9.7.379,19.511.969,29.16,1.755l1.525.124.524,1.437c5.241,14.393,5.241,26.674,0,41.066l-.524,1.437-1.524.124c-9.61.786-19.421,1.377-29.159,1.757l-2.8.109Z" transform="translate(-203.314 -0.567)" fill="#fff"></path><path d="M445.212,183.86q-14.518,1.187-29.058,1.75a176.844,176.844,0,0,0,0-42.933q14.556.567,29.058,1.749C450.242,158.238,450.242,170.05,445.212,183.86Z" transform="translate(-211.667 -8.272)" fill="#72b32f"></path><path d="M473.723,202.169c-1.354-.024-2.031-.034-3.385-.057.179,2.258.233,3.387.267,5.645l3.107.01c2.736.008,4.107-.937,3.99-2.841C477.592,203.137,476.229,202.214,473.723,202.169Z" transform="translate(-252.601 -53.172)" fill="none"></path><path d="M306.027,172.682c-4.523-.005-6.784.006-11.307.055a250.157,250.157,0,0,0,.151,30.2c4.692.058,7.037.069,11.728.061a13.747,13.747,0,0,0,10.284-4.314,15.338,15.338,0,0,0,4.309-11,15.529,15.529,0,0,0-3.952-10.422C314.651,174.239,310.938,172.686,306.027,172.682Z" transform="translate(-119.637 -30.938)" fill="#fff"></path><path d="M458.131,183.57a8.334,8.334,0,0,0-2.055-4.739,11.907,11.907,0,0,0-4.493-3.292,21.085,21.085,0,0,0-7.319-1.325c-4.992-.186-7.488-.264-12.481-.385a155.608,155.608,0,0,1-.233,29.714c3.6-.1,5.4-.161,8.994-.3a72.779,72.779,0,0,0,1.278-10.592c2.093-.025,3.14-.039,5.233-.068a13.082,13.082,0,0,0,8.177-2.586A7.106,7.106,0,0,0,458.131,183.57Zm-13.723,2.83-3.106-.01c-.034-2.258-.088-3.387-.267-5.645,1.354.022,2.031.033,3.385.057,2.507.046,3.869.969,3.978,2.758C448.515,185.464,447.144,186.409,444.408,186.4Z" transform="translate(-223.298 -31.805)" fill="#fff"></path><g transform="translate(142.939 184.03)"><path d="M169.417,353.254h-4.964v-7.638h4.913v1.136H165.83v2.071h2.842v1.108H165.83v2.137h3.586Z" transform="translate(-164.453 -345.616)" fill="#fff"></path><path d="M194.3,353.254h-1.471l-.61-1.818h-2.938l-.6,1.818H187.5l2.535-7.638h1.7Zm-2.45-2.921-1.114-3.408-1.114,3.408Z" transform="translate(-181.867 -345.616)" fill="#fff"></path><path d="M217.742,353.254h-1.477V346.8h-2.032v-1.181h5.54V346.8h-2.031Z" transform="translate(-202.06 -345.616)" fill="#fff"></path><path d="M267.11,353.254v-7.638h2.815a3.137,3.137,0,0,1,2.507,1.105,4.053,4.053,0,0,1,.945,2.728,3.927,3.927,0,0,1-.973,2.714,3.54,3.54,0,0,1-2.786,1.091Zm1.415-1.125h1.148a2.057,2.057,0,0,0,1.566-.693,2.941,2.941,0,0,0,.644-2.065,3.135,3.135,0,0,0-.563-1.894,1.749,1.749,0,0,0-1.486-.775h-1.309Z" transform="translate(-242.008 -345.616)" fill="#fff"></path><path d="M305.081,353.254h-1.455l-1.186-3.14H300.5v3.14h-1.377v-7.638h3.312a2.848,2.848,0,0,1,2.032.624,2.141,2.141,0,0,1,.649,1.614,2.02,2.02,0,0,1-1.377,2.026Zm-4.577-4.242h1.712a1.663,1.663,0,0,0,1.108-.313,1.079,1.079,0,0,0,.363-.862,1.029,1.029,0,0,0-.358-.815,1.483,1.483,0,0,0-1-.31H300.5Z" transform="translate(-266.196 -345.616)" fill="#fff"></path><path d="M331.788,353.254h-1.376v-7.638h1.376Z" transform="translate(-289.831 -345.616)" fill="#fff"></path><path d="M349.849,353.254h-1.338l-2.9-4.88-.219-.363c-.045-.075-.114-.192-.207-.352v5.6H344.08v-7.638H345.6l2.675,4.5q.033.057.487.823v-5.322h1.085Z" transform="translate(-300.156 -345.616)" fill="#fff"></path><path d="M381.712,353.254h-1.539l-1.612-3.889-1.477,1.959v1.931h-1.377v-7.638h1.377v4.012c.175-.271.3-.46.381-.565L380,345.616h1.393l-1.813,2.513Z" transform="translate(-324.05 -345.616)" fill="#fff"></path><path d="M432.8,353.254h-1.376v-7.638h3.127a2.635,2.635,0,0,1,1.984.674,2.347,2.347,0,0,1-.053,3.288,2.506,2.506,0,0,1-1.774.649H432.8Zm0-4.208h1.628a1.379,1.379,0,0,0,.974-.313,1.087,1.087,0,0,0,.336-.834,1.147,1.147,0,0,0-.311-.806,1.5,1.5,0,0,0-1.122-.335H432.8Z" transform="translate(-366.14 -345.616)" fill="#fff"></path><path d="M465.37,353.254h-4.7v-7.638h1.45v6.39h3.251Z" transform="translate(-388.236 -345.616)" fill="#fff"></path><path d="M488.726,353.254h-1.471l-.61-1.818h-2.938l-.6,1.818h-1.175l2.534-7.638h1.7Zm-2.451-2.921-1.113-3.408-1.114,3.408Z" transform="translate(-404.301 -345.616)" fill="#fff"></path><path d="M511.882,353.254h-1.461v-3.223l-2.6-4.415h1.667l1.813,3.151,1.735-3.151h1.321l-2.473,4.415Z" transform="translate(-423.857 -345.616)" fill="#fff"></path></g><rect width="1.671" height="1.671" transform="matrix(0.707, -0.707, 0.707, 0.707, 162.035, 188.794)" fill="#fff" stroke="#fff" stroke-miterlimit="10" stroke-width="1.67"></rect><rect width="1.672" height="1.672" transform="translate(203.075 188.795) rotate(-45.001)" fill="#fff" stroke="#fff" stroke-miterlimit="10" stroke-width="1.67"></rect><g transform="translate(181.136 146.526)"><path d="M330.341,195.207a1.128,1.128,0,0,0-.332-.824h0a.344.344,0,0,0,.17-.3.6.6,0,0,0-.277-.416.336.336,0,0,0-.076-.154.648.648,0,0,0-.379-.184.338.338,0,0,0-.025-.1.72.72,0,0,0-.527-.322,1.432,1.432,0,0,0-.991-.256c-.1,0-.188,0-.246.007a2.456,2.456,0,0,0-1.3-.251c-.24,0-.444.013-.545.021a2.1,2.1,0,0,0-1-.151c-.225,0-.42.01-.5.015a1.03,1.03,0,0,0-.311-.051.974.974,0,0,0-.768.406,1.494,1.494,0,0,0-1.106.483,1.274,1.274,0,0,0-.971.472,1.019,1.019,0,0,0-.145.779,1.133,1.133,0,0,0-.334.825,29.966,29.966,0,0,0,.807,8.067,21.591,21.591,0,0,1,.605,7.26l-.243,2.863a27.919,27.919,0,0,0,7.341,0c0-.009-.007-.017-.019-.024l-.24-2.839a21.623,21.623,0,0,1,.6-7.26A29.943,29.943,0,0,0,330.341,195.207Zm-8.882-1.4a.984.984,0,0,1,.768-.32l.078,0,.05-.06a1.24,1.24,0,0,1,.783-.416.626.626,0,0,1,.141.016l.137.032.067-.123a.645.645,0,0,1,.519-.324.662.662,0,0,1,.225.042l.036.013.04,0s.232-.018.51-.018c.676,0,.819.1.833.114l.059.049.076-.007s.258-.024.577-.024a2.021,2.021,0,0,1,1.126.209l.061.053.08-.008s.123-.011.284-.011c.463,0,.692.09.746.166l.045.064.078.011c.129.018.286.078.291.125l-.208.292h.358a.8.8,0,0,1,.325.062l-.02.123.107.065a.907.907,0,0,1,.108.078c-.125-.024-.3-.058-.521-.1a17.816,17.816,0,0,0-3.657-.4h-.1c-.115,0-.332.009-.6.02a13.688,13.688,0,0,0-1.835.141,5.584,5.584,0,0,0-1.458.321q-.1.045-.179.093c-.008,0-.019.006-.027.01A.582.582,0,0,1,321.458,193.811Zm-.377,2.122v-.847a.758.758,0,0,1,.2-.556,6.211,6.211,0,0,1,.881-.3,18.185,18.185,0,0,1,2.654-.325c.1,0,.2-.005.3-.005a24.759,24.759,0,0,1,4.2.4,1.427,1.427,0,0,1,.6.624l.08,1.007A22.67,22.67,0,0,0,321.081,195.933Zm7.72,17.279a23.229,23.229,0,0,1-6.634-.138l.046-.968a18.372,18.372,0,0,0,6.635.092S328.939,213.2,328.8,213.212Zm-.262-10.4c-.635,1.922-.665,6.9-.665,6.9s-.938-4.152-.031-7.07a21.078,21.078,0,0,0,.847-5.9S329.174,200.893,328.539,202.814Z" transform="translate(-320.66 -192.242)" fill="#0060af"></path></g><g transform="translate(143.341 141.922)"><path d="M189.184,196.2q-6.744-.083-13.488-.22c-.226-1.908-.308-2.861-.409-4.769,4.413.04,6.62.057,11.032.083-.094-2.648-.1-3.972-.037-6.62-4.42.018-6.63.028-11.05.056.061-1.693.117-2.538.277-4.232q6.78-.108,13.56-.176c.157-2.763.275-4.144.587-6.907-4.158.093-16.758.254-21.251.389a3.9,3.9,0,0,0,1.259,2.237,12.822,12.822,0,0,1,3.246,2.92c1.216,1.63,1.038,4.364,3.38,10.388.081.208-.646.673-.769.452a46.389,46.389,0,0,1-3.291-8.4.837.837,0,0,0-.584,1.116,41.5,41.5,0,0,0,2.969,7.9c.093.205-.682.755-.826.583-1-1.2-3.762-8.363-3.762-8.363a.782.782,0,0,0-.5.972A40.609,40.609,0,0,0,173,191.455c.089.164-.784.683-.883.526a79.1,79.1,0,0,1-4.243-8.066,1.076,1.076,0,0,0-.412,1.151c.181.772.98,2.891,3.838,7.36.179.279-.779.721-.894.57a37.875,37.875,0,0,1-4.3-7.039,79.845,79.845,0,0,0,2.06,16.611q10.871.494,21.745.778C189.533,200.486,189.388,199.056,189.184,196.2Z" transform="translate(-166.097 -173.412)" fill="#fff"></path></g><g transform="translate(255.976 181.837)"><g><path d="M626.719,336.645" transform="translate(-626.719 -336.645)" fill="#1a1818"></path></g></g></g></svg>