<svg xmlns="http://www.w3.org/2000/svg" width="149.53" height="61.98" viewBox="0 0 149.53 61.98"><g transform="translate(0 -0.1)"><path d="M14.189,187.942a4.729,4.729,0,0,1-1.4,3.422,4.571,4.571,0,0,1-3.4,1.42H8.7a4.571,4.571,0,0,1-3.4-1.42,4.691,4.691,0,0,1-1.4-3.422V179.1a4.769,4.769,0,0,1,4.8-4.8h.7a4.769,4.769,0,0,1,4.8,4.8Zm-3.213-.466v-7.8a2.62,2.62,0,0,0-.559-1.7,1.667,1.667,0,0,0-1.35-.7,1.742,1.742,0,0,0-1.373.7,2.555,2.555,0,0,0-.582,1.7v7.8a2.433,2.433,0,0,0,.582,1.653,1.742,1.742,0,0,0,1.373.7,1.708,1.708,0,0,0,1.35-.675A2.6,2.6,0,0,0,10.977,187.476Z" transform="translate(-2.992 -130.75)" fill="#fff"></path><path d="M65.48,181.22a4.769,4.769,0,0,1-4.8,4.8H59.1a.541.541,0,0,0-.605.605v6.146a.549.549,0,0,1-.629.605H55.959c-.372,0-.559-.21-.559-.605V175.982c0-.4.186-.582.559-.582h4.749a4.549,4.549,0,0,1,3.375,1.4,4.617,4.617,0,0,1,1.373,3.4l.023,1.024Zm-3.166.279v-1.536a1.663,1.663,0,0,0-.559-1.257,1.864,1.864,0,0,0-1.327-.512H59.171a.653.653,0,0,0-.442.163.529.529,0,0,0-.21.419v3.957a.529.529,0,0,0,.21.419.7.7,0,0,0,.442.163h1.257a1.926,1.926,0,0,0,1.327-.535A1.642,1.642,0,0,0,62.314,181.5Z" transform="translate(-42.503 -131.593)" fill="#fff"></path><path d="M116.48,181.22a4.769,4.769,0,0,1-4.8,4.8H110.1a.541.541,0,0,0-.605.605v6.146a.549.549,0,0,1-.629.605h-1.909c-.372,0-.559-.21-.559-.605V175.982c0-.4.186-.582.559-.582h4.749a4.549,4.549,0,0,1,3.375,1.4,4.617,4.617,0,0,1,1.373,3.4v1.024Zm-3.189.279v-1.536a1.663,1.663,0,0,0-.559-1.257,1.864,1.864,0,0,0-1.327-.512h-1.257a.653.653,0,0,0-.442.163.529.529,0,0,0-.21.419v3.957a.529.529,0,0,0,.21.419.7.7,0,0,0,.442.163h1.257a1.926,1.926,0,0,0,1.327-.535A1.642,1.642,0,0,0,113.291,181.5Z" transform="translate(-80.324 -131.593)" fill="#fff"></path><path d="M167.689,187.942a4.729,4.729,0,0,1-1.4,3.422,4.571,4.571,0,0,1-3.4,1.42h-.7a4.571,4.571,0,0,1-3.4-1.42,4.691,4.691,0,0,1-1.4-3.422V179.1a4.769,4.769,0,0,1,4.8-4.8h.7a4.769,4.769,0,0,1,4.8,4.8Zm-3.213-.466v-7.8a2.62,2.62,0,0,0-.559-1.7,1.667,1.667,0,0,0-1.35-.7,1.742,1.742,0,0,0-1.374.7,2.555,2.555,0,0,0-.582,1.7v7.8a2.433,2.433,0,0,0,.582,1.653,1.742,1.742,0,0,0,1.374.7,1.708,1.708,0,0,0,1.35-.675A2.6,2.6,0,0,0,164.477,187.476Z" transform="translate(-118.821 -130.75)" fill="#fff"></path><path d="M220.913,192.766a.592.592,0,0,1,.047.163c0,.3-.163.442-.489.442h-1.955c-.256,0-.466-.21-.605-.605l-2.3-6.541c-.116-.3-.256-.442-.442-.442h-.978c-.372,0-.559.21-.559.605v6.378a.675.675,0,0,1-.186.419.583.583,0,0,1-.419.186h-1.862c-.372,0-.559-.21-.559-.605V175.982c0-.4.186-.582.559-.582h4.609a4.844,4.844,0,0,1,3.422,1.28,4.515,4.515,0,0,1,1.42,3.422v.885a4.5,4.5,0,0,1-2.281,4.074c-.07.047-.093.14-.023.326Zm-3.236-11.384v-1.443a1.726,1.726,0,0,0-.535-1.257,1.772,1.772,0,0,0-1.3-.512h-1.723c-.349,0-.512.21-.512.605v3.771c0,.4.186.582.559.582h1.676a1.809,1.809,0,0,0,1.3-.512A1.559,1.559,0,0,0,217.677,181.383Z" transform="translate(-158.981 -131.593)" fill="#fff"></path><path d="M268.141,177.518a.549.549,0,0,1-.629.605h-2.77a.675.675,0,0,0-.419.186.574.574,0,0,0-.186.4v14.061c0,.4-.186.605-.559.605h-1.839a.541.541,0,0,1-.605-.605V178.706c0-.4-.186-.582-.559-.582h-2.77a.541.541,0,0,1-.605-.605v-1.536c0-.4.21-.582.605-.582h9.707c.419,0,.629.186.629.582v1.536Z" transform="translate(-194.145 -131.593)" fill="#fff"></path><path d="M320.683,188.786a4.565,4.565,0,0,1-1.467,3.4,4.763,4.763,0,0,1-3.469,1.42h-.559a4.711,4.711,0,0,1-3.445-1.42,4.579,4.579,0,0,1-1.443-3.4v-12.8c0-.4.186-.582.559-.582h1.955a.508.508,0,0,1,.582.582v12.454a2.477,2.477,0,0,0,.629,1.7,1.861,1.861,0,0,0,1.443.722,1.818,1.818,0,0,0,1.42-.722,2.5,2.5,0,0,0,.605-1.7V175.982c0-.4.21-.582.605-.582h1.932a.681.681,0,0,1,.442.186.574.574,0,0,1,.186.4l.023,12.8Z" transform="translate(-234.243 -131.593)" fill="#fff"></path><path d="M374.862,192.766a.541.541,0,0,1-.605.605h-1.746c-.279,0-.489-.186-.652-.559l-4.283-9.568c-.047-.116-.116-.186-.186-.186-.116,0-.163.093-.163.256v9.451a.549.549,0,0,1-.629.605h-1.839c-.372,0-.559-.21-.559-.605V176.005c0-.4.186-.605.559-.605H366.6q.489,0,.768.629l4.144,9.242c.07.116.14.163.233.163s.14-.093.14-.256v-9.149a.61.61,0,0,1,.21-.442.681.681,0,0,1,.442-.186h1.746a.549.549,0,0,1,.605.629l-.023,16.738Z" transform="translate(-274.921 -131.593)" fill="#fff"></path><path d="M424.689,192.72c0,.442-.21.652-.629.652h-1.932c-.419,0-.629-.21-.629-.652V176.029a.556.556,0,0,1,.629-.629h1.932a.556.556,0,0,1,.629.629Z" transform="translate(-318.455 -131.593)" fill="#fff"></path><path d="M453.941,177.518a.549.549,0,0,1-.629.605h-2.77a.675.675,0,0,0-.419.186.574.574,0,0,0-.186.4v14.061c0,.4-.186.605-.559.605h-1.839a.541.541,0,0,1-.605-.605V178.706c0-.4-.186-.582-.559-.582h-2.77a.541.541,0,0,1-.605-.605v-1.536c0-.4.209-.582.605-.582h9.707c.419,0,.629.186.629.582v1.536Z" transform="translate(-334.394 -131.593)" fill="#fff"></path><path d="M501.389,192.72c0,.442-.209.652-.629.652h-1.932c-.419,0-.629-.21-.629-.652V176.029a.556.556,0,0,1,.629-.629h1.932a.556.556,0,0,1,.629.629Z" transform="translate(-375.231 -131.593)" fill="#fff"></path><path d="M532.693,192.72a.62.62,0,0,1-.21.466.681.681,0,0,1-.442.186h-7.589a.573.573,0,0,1-.442-.21.61.61,0,0,1-.21-.442V176.029c0-.419.21-.629.652-.629h7.38c.442,0,.652.21.652.629v1.583a.62.62,0,0,1-.209.466.681.681,0,0,1-.442.186h-4.26c-.442,0-.652.21-.652.629v3.05c0,.4.209.605.652.605h3.236c.442,0,.652.209.652.629v1.536a.692.692,0,0,1-.186.466.65.65,0,0,1-.466.186h-3.236c-.442,0-.652.21-.652.629v3.795c0,.419.209.629.652.629h4.493a.573.573,0,0,1,.442.21.61.61,0,0,1,.21.442l-.023,1.653Z" transform="translate(-394.872 -131.593)" fill="#fff"></path><path d="M577.335,188.011a4.545,4.545,0,0,1-1.42,3.515,5.261,5.261,0,0,1-3.678,1.3,4.966,4.966,0,0,1-4.12-1.862,8.854,8.854,0,0,1-1.35-2.933.523.523,0,0,1,.349-.722l1.653-.559a.644.644,0,0,1,.209-.023.556.556,0,0,1,.582.419c.512,1.862,1.4,2.817,2.654,2.817a1.988,1.988,0,0,0,1.467-.535,1.951,1.951,0,0,0,.536-1.42c0-.791-.605-1.723-1.839-2.793-1.117-.954-2.258-1.886-3.4-2.84a5.17,5.17,0,0,1-1.839-3.585,4.248,4.248,0,0,1,1.443-3.352,4.7,4.7,0,0,1,3.236-1.141,4.614,4.614,0,0,1,3.818,1.839,6.823,6.823,0,0,1,1.117,2.212.577.577,0,0,1,.023.21.526.526,0,0,1-.4.535l-1.467.466a.547.547,0,0,1-.186.047.553.553,0,0,1-.559-.4c-.675-1.583-1.467-2.374-2.351-2.374a1.669,1.669,0,0,0-1.257.605,2.039,2.039,0,0,0-.535,1.373q0,.908,1.886,2.444c2.049,1.653,3.213,2.631,3.515,2.933A5.52,5.52,0,0,1,577.335,188.011Z" transform="translate(-427.805 -130.75)" fill="#fff"></path><g transform="translate(0 21.873)"><path d="M11.523,89.082,7.659,99.069a1.4,1.4,0,0,0-.14.535v6.262c0,.4-.186.605-.582.605H4.982a.541.541,0,0,1-.605-.605V99.6a1.4,1.4,0,0,0-.14-.535L.047,89.082A.432.432,0,0,1,0,88.919c0-.279.186-.419.535-.419H2.724c.256,0,.466.186.605.582L5.7,95.135c.093.233.186.372.3.372s.233-.116.326-.349l1.955-6.076c.116-.4.3-.582.582-.582h2.188q.489,0,.489.419A.4.4,0,0,1,11.523,89.082Z" transform="translate(0 -88.244)" fill="#fff"></path><path d="M62.589,101.042a4.729,4.729,0,0,1-1.4,3.422,4.571,4.571,0,0,1-3.4,1.42h-.7a4.571,4.571,0,0,1-3.4-1.42,4.691,4.691,0,0,1-1.4-3.422V92.2a4.769,4.769,0,0,1,4.8-4.8h.7a4.769,4.769,0,0,1,4.8,4.8Zm-3.189-.466v-7.8a2.62,2.62,0,0,0-.559-1.7,1.667,1.667,0,0,0-1.35-.7,1.742,1.742,0,0,0-1.373.7,2.554,2.554,0,0,0-.582,1.7v7.8a2.433,2.433,0,0,0,.582,1.653,1.742,1.742,0,0,0,1.373.7,1.708,1.708,0,0,0,1.35-.675A2.6,2.6,0,0,0,59.4,100.576Z" transform="translate(-40.125 -87.4)" fill="#fff"></path><path d="M167.041,90.6a.549.549,0,0,1-.629.605h-2.77a.675.675,0,0,0-.419.186.574.574,0,0,0-.186.4v14.061c0,.4-.186.605-.559.605h-1.839a.541.541,0,0,1-.605-.605V91.782c0-.4-.186-.582-.559-.582h-2.77a.541.541,0,0,1-.605-.605V89.082c0-.4.21-.582.605-.582h9.707c.419,0,.629.186.629.582V90.6Z" transform="translate(-119.761 -88.244)" fill="#fff"></path><path d="M218.964,105.743c0,.442-.21.652-.629.652h-1.886a.61.61,0,0,1-.442-.21.681.681,0,0,1-.186-.442V99.6a.636.636,0,0,0-.652-.652h-2.444c-.4,0-.605.21-.605.652v6.146a.732.732,0,0,1-.186.442.573.573,0,0,1-.442.21h-1.862c-.419,0-.629-.21-.629-.652V89.029a.556.556,0,0,1,.629-.629h1.862a.556.556,0,0,1,.629.629v6.309a.549.549,0,0,0,.605.629h2.421c.442,0,.652-.21.652-.629V89.029a.681.681,0,0,1,.186-.442.636.636,0,0,1,.442-.186h1.886a.556.556,0,0,1,.629.629v16.714Z" transform="translate(-160.346 -88.167)" fill="#fff"></path></g><path d="M115.483,102.109a4.565,4.565,0,0,1-1.467,3.4,4.763,4.763,0,0,1-3.469,1.42h-.559a4.711,4.711,0,0,1-3.445-1.42,4.579,4.579,0,0,1-1.443-3.4v-12.8c0-.4.186-.582.559-.582h1.955a.508.508,0,0,1,.582.582V101.76a2.477,2.477,0,0,0,.629,1.7,1.861,1.861,0,0,0,1.443.722,1.818,1.818,0,0,0,1.42-.722,2.5,2.5,0,0,0,.605-1.7V89.282c0-.4.21-.582.605-.582h1.932a.681.681,0,0,1,.442.186.574.574,0,0,1,.186.4l.023,12.827Z" transform="translate(-79.339 -66.512)" fill="#fff"></path><path d="M271.544,71.1c-.093-.093-.116-.279-.233-.4a5.289,5.289,0,0,0-.954-.512c-1-.605-2.165-1.35-3.236-1.886l-.559-.14c-.605-.326-1.234-.791-1.862-1.117a13.239,13.239,0,0,1-2.631-1.49h.07a20.5,20.5,0,0,1,2.631-.466c.07,0,.233.093.3.07,1.373-.419,2.887-.4,4.19-.954.233-.093.792-.14.885-.186.116-.093.21-.21.326-.3.047.023.07.047.116.07.3-.326.442-.815.745-1.141l-.163-.512a15.528,15.528,0,0,0-5.959.372c-.466.047-5.168.745-5.168.745-.838.186-2,.3-2.468.908a2.179,2.179,0,0,1-.093.372l-.256.256a3,3,0,0,0,.023,1.583c.4.047.466.326.722.466.326.163,9.661,4.493,10.8,4.912a2.958,2.958,0,0,0,1.467.279c.233-.047.512-.186.815-.233C271.2,71.422,271.451,71.468,271.544,71.1Z" transform="translate(-193.994 -46.632)" fill="#fff"></path><path d="M355.01,100.469s.047.489.093.7a17.447,17.447,0,0,0,.535,1.792,47.951,47.951,0,0,0,2.3,5.308c.3.559.372,1.234.792,1.653v.14a17.727,17.727,0,0,1-4.633-2.374c-.186-.163-.535-.093-.768-.21a8.16,8.16,0,0,1-.7-.559c-.163-.047-.349-.093-.512-.14-.7-.466-1.979,1.56-.931,2.188,2,1.211,4.051,2.118,5.936,3.189.279.163.489.047.768.21.792.442,2.724,1.3,3.352.093a2.828,2.828,0,0,0-.14-2.817,20.629,20.629,0,0,0-1.35-2.142c-.163-.256-.116-.675-.279-.954-.047-.07-.21-.07-.256-.14a10.441,10.441,0,0,1-.4-1.024c-.093-.093-.163-.186-.256-.279v-.279c-.07-.186-.256-.326-.349-.489-.023-.14-.023-.279-.047-.419-.047-.116-.116-.326-.186-.489a1.138,1.138,0,0,0-.163-.07c-.116-.186-.047-.466-.14-.7-.14-.326-.419-.7-.535-1.024a10.538,10.538,0,0,0-.535-1.373c-.535-.605-1.094-.3-1.606.047Z" transform="translate(-264.8 -75.111)" fill="#fff"></path><g transform="translate(84.554 11.974)"><g><path d="M360.745,49.547c-.186-.4-.372-.419-.4-.815-1.28-.908-2.607-.535-3.725-.442-2.863.233-6.169.14-8.869,1.024-.279.093-.629-.07-.908,0-.093.093-.186.163-.279.256-.792.326-1.862.093-2.468,1.187a7.259,7.259,0,0,1,.256.954,1.588,1.588,0,0,1,.4.4c.978.652,2.887-.233,3.794-.419a2.732,2.732,0,0,1,.745.047,7.942,7.942,0,0,0,1.234-.3c1.606-.186,3.212-.326,4.8-.582.652-.093,1.35.163,1.955-.116.023.023.07.047.116.093-.954,1.327-1.839,2.561-2.747,3.771-.116.163-.186.559-.349.791a21.106,21.106,0,0,0-1.3,2.4,6.18,6.18,0,0,0-.954,2.025c.07.116.047.047.07.14,1.211.978,1.955.047,2.631-1.048a9.7,9.7,0,0,0,.954-1.443,4.029,4.029,0,0,1,.7-1c.489-.559.908-1.7,1.49-2.328a26.7,26.7,0,0,0,2.887-3.632C360.7,50.246,360.838,49.78,360.745,49.547Z" transform="translate(-344.1 -48.135)" fill="#fff"></path></g></g><path d="M302.382,69.88a1.068,1.068,0,0,0-.791-.093c-.14.023-.279.279-.582.466-.442.279-1.117.675-1.606.978s-.792.861-1.257,1.164c-2.235,1.42-2.7,2.724-4.8,4.167-.3.209-.512.7-.745.908-.815.652-1.723,1.606-2.444,2.1l-.629.745a3.383,3.383,0,0,1-.722.629c-.14.093-.419.629-.722.838-.815.629-1.653,1.723-2.561,2.351l-.582.7c-.349.256-.745.768-1.211,1.094-.442.466-.861.954-1.3,1.42a15.066,15.066,0,0,0-1.28,1.234c-.675,2.049-.861,3.748.7,2.98.535-.559,1.024-1.211,1.536-1.676a55.429,55.429,0,0,1,4.679-4.4c.14-.186.256-.4.4-.582.442-.4.931-.885,1.164-1.048l.535-.629c.7-.489,1.467-1.373,2.025-1.723l.722-.838c.815-.559,1.4-1.234,2.049-1.606.163-.093.442-.605.629-.745,1.769-1.373,1.746-1.746,3.538-2.91.559-.372.838-.815,1.4-1.211a5.155,5.155,0,0,0,1.048-.791c.349-.4.722-.163,1.048-.885.21-.489.652-.4.745-1C303.383,71.044,302.941,70,302.382,69.88Z" transform="translate(-211.506 -52.171)" fill="#fff"></path><path d="M315.147,10.739c-1.374-2.84-3.306-4.7-4.586-7.286l-.349.07a30.248,30.248,0,0,1-2.258,8.4c-.605.3-1.653.582-2,.186-.535-.652.675-2.537.792-3.05.582-2.281,1.909-6.588,2.072-8.753.14-.07.256-.14.4-.21,3.166,1.63,5.168,6.844,7.659,10.406C316.5,11.041,315.752,10.645,315.147,10.739Z" transform="translate(-230.839)" fill="#fff"></path></g></svg>