<svg xmlns="http://www.w3.org/2000/svg" width="30.003" height="32" viewBox="0 0 30.003 32"><g transform="translate(-0.938 -0.24)"><path d="M24.441,13.85a4.08,4.08,0,0,0-4.08-4.08h-1.02a.34.34,0,0,0-.34.313v2.04a.34.34,0,0,0,.34.34h1.02a1.36,1.36,0,0,1,1.36,1.36v4.76a1.36,1.36,0,0,1-1.17,1.36h-1.21a.34.34,0,0,0-.34.34v1.278a.258.258,0,0,0,0,.109c.082.245.177.5.258.762a.354.354,0,0,0,.326.231h.938a4,4,0,0,0,3.889-4.08Z" transform="translate(6.5 3.43)"></path><path d="M26.862,8.889a5.018,5.018,0,0,0-4.08-4.9.34.34,0,0,1-.218-.15,8.16,8.16,0,0,0-6.8-3.6A7.983,7.983,0,0,0,9.359,3.409a.34.34,0,0,1-.367.122,5.875,5.875,0,0,0-1.741-.258,6.229,6.229,0,0,0-1.714,12.24.34.34,0,0,1,.245.326v9.52a.639.639,0,0,1,0,.231,24.167,24.167,0,0,0-1.36,4.651,2.04,2.04,0,0,0,2.04,2h16.32a2.04,2.04,0,0,0,2.04-2.04,24.167,24.167,0,0,0-1.36-4.651.639.639,0,0,1,0-.231V13.867a.34.34,0,0,1,.218-.326,4.964,4.964,0,0,0,3.182-4.651ZM7.251,5.993a3.59,3.59,0,0,1,1.809.5,1.356,1.356,0,0,0,1.931-.558,5.277,5.277,0,0,1,4.773-2.992,5.44,5.44,0,0,1,4.869,2.9,1.36,1.36,0,0,0,1.224.748,2.292,2.292,0,0,1,0,4.583H15.764a2.584,2.584,0,0,0-2.5,2.584v.612a2.3,2.3,0,0,1-4.583,0,1.36,1.36,0,0,0-1.36-1.36,3.509,3.509,0,1,1,0-7.017ZM12.582,26.46a1.02,1.02,0,0,1-2.04,0V20.68a1.02,1.02,0,0,1,2.04,0Zm6.12,0a1.02,1.02,0,1,1-2.04,0V17.28a1.02,1.02,0,0,1,2.04,0Z" transform="translate(0)"></path></g></svg>