<svg xmlns="http://www.w3.org/2000/svg" width="32" height="32" viewBox="0 0 32 32"><path d="M22.307,18.291a1.338,1.338,0,1,0-.227,2.667,38.881,38.881,0,0,1,5.027.693.333.333,0,0,1,0,.653A53.16,53.16,0,0,1,16,23.238a53.16,53.16,0,0,1-11.107-.947.333.333,0,0,1,0-.653,38.481,38.481,0,0,1,4.973-.693,1.332,1.332,0,0,0-.227-2.653C0,19.1,0,21.1,0,21.9c0,3.56,11.093,4,16,4s16-.387,16-4C32,21.1,32,19.1,22.307,18.291Z" transform="translate(0 6.095)"></path><path d="M14.453,28.8a1.333,1.333,0,0,0,1.12-.613c2.667-4.08,8.693-14.04,8.693-18.373a9.813,9.813,0,1,0-19.627,0c0,4.333,6.08,14.293,8.693,18.373A1.333,1.333,0,0,0,14.453,28.8ZM9.787,9.333A4.667,4.667,0,1,1,14.453,14,4.667,4.667,0,0,1,9.787,9.333Z" transform="translate(1.547)"></path></svg>