<svg xmlns="http://www.w3.org/2000/svg" width="32" height="27.995" viewBox="0 0 32 27.995"><g transform="translate(0.008 -1.496)"><path d="M27.3,24.693a4.665,4.665,0,0,0-2.532-4.145l-4-2.026a.333.333,0,0,1-.133-.36V16.03a.347.347,0,0,1,.147-.28A4.6,4.6,0,0,0,22.607,12.1a.333.333,0,0,1,.133-.24,2.146,2.146,0,0,0,.72-1.693,2.279,2.279,0,0,0-.546-1.6.307.307,0,0,1-.08-.333A8.277,8.277,0,0,0,23.3,4.007c-.48-1.839-2.986-2.506-5-2.506a6.864,6.864,0,0,0-4.092,1.16.427.427,0,0,0-.12.227.413.413,0,0,0,.08.253,11.116,11.116,0,0,1,2.506,6.664c.187,2.666.44,2.946,1.066,3.572a2.666,2.666,0,0,1-.307,4.119,11.409,11.409,0,0,1-2.586,1.333.335.335,0,0,0-.027.613c.626.32,1.24.666,1.866,1.04h0a6.944,6.944,0,0,1,3.279,6.264V29.1a.333.333,0,0,0,.333.333h6.331a.666.666,0,0,0,.666-.613Z" transform="translate(4.693)"></path><path d="M22.328,29.427a.333.333,0,0,0,.333-.333V26.734h0a5.038,5.038,0,0,0-2.306-4.558,29.137,29.137,0,0,0-5.225-2.466c-.467-.173-.973-.6-.973-1.066h0v-.706a.333.333,0,0,1,.107-.24.32.32,0,0,1,.24-.093,10,10,0,0,0,6.478-1.826.693.693,0,0,0,.253-.506.773.773,0,0,0-.213-.56,4,4,0,0,1-1.066-1.466,11.276,11.276,0,0,1-.573-3.385,8.29,8.29,0,0,0-4.092-7.171,8.344,8.344,0,0,0-7.917,0A8.29,8.29,0,0,0,3.282,9.86a10.943,10.943,0,0,1-.613,3.4,3.572,3.572,0,0,1-.213.453,5.065,5.065,0,0,1-.88,1.053.64.64,0,0,0-.2.52.68.68,0,0,0,.28.493A9.823,9.823,0,0,0,7.88,17.6h.253a.32.32,0,0,1,.24.093.333.333,0,0,1,.107.24v.706h0c0,.467-.506.893-.973,1.066a29.137,29.137,0,0,0-5.225,2.466A5.038,5.038,0,0,0,0,26.734H0v2.359a.333.333,0,0,0,.333.333Z" transform="translate(0 0.065)"></path></g></svg>