<svg xmlns="http://www.w3.org/2000/svg" width="32" height="31.391" viewBox="0 0 32 31.391"><g transform="translate(-0.503 -0.71)"><path d="M4.612,15.153A.375.375,0,0,0,4.307,15a.347.347,0,0,0-.292.181L.68,20.934a1.39,1.39,0,0,0,1.39,2.057l3.321-.556,1.153,3.182a1.39,1.39,0,0,0,2.5.222L11.825,21.2a.306.306,0,0,0,0-.292.347.347,0,0,0-.208-.208,14.2,14.2,0,0,1-7-5.545Z" transform="translate(0 5.568)"></path><path d="M26.5,20.942l-3.293-5.795a.347.347,0,0,0-.584-.014,14.313,14.313,0,0,1-7.046,5.559.389.389,0,0,0-.208.208.306.306,0,0,0,0,.292l2.779,4.669a1.39,1.39,0,0,0,2.5-.236L21.8,22.442,25.126,23A1.332,1.332,0,0,0,26.5,20.942Z" transform="translate(5.779 5.56)"></path><path d="M27.549,12.869A12.159,12.159,0,1,0,15.417,25.029,12.159,12.159,0,0,0,27.549,12.869Zm-7.3,4.753a.82.82,0,0,1-1.181,1.028l-3.5-1.973a.389.389,0,0,0-.347,0l-3.5,1.973a.82.82,0,0,1-1.181-1.028l1.39-3.28a.347.347,0,0,0-.083-.389L9.317,11.424a.778.778,0,0,1,.542-1.39H12.8a.347.347,0,0,0,.32-.195l1.529-3.168a.848.848,0,0,1,1.487,0l1.529,3.154a.334.334,0,0,0,.306.195h3a.778.778,0,0,1,.556,1.39l-2.64,2.543a.361.361,0,0,0-.069.389Z" transform="translate(1.063)"></path></g></svg>